PathFileType	4	(X/Y/Z)	C:/Users/opensim2020/Desktop/walking_exp_matlab/subject02_walking07_straight_02.trc																																																																																																																																																				
DataRate	CameraRate	NumFrames	NumMarkers	Units	OrigDataRate	OrigDataStartFrame	OrigNumFrames																																																																																																																																																
100	100	8	50	mm	100	1436	210																																																																																																																																																
Frame#	Time	LFHD			RFHD			LBHD			RBHD			C7			T10			CLAV			STRN			RBAK			LSHO			LUPA			LELB			LFRM			LWRA			LWRB			LFIN			RSHO			RUPA			RELB			RFRM			RWRA			RWRB			RFIN			LASI			RASI			LPSI			RPSI			LTHI			LKNE			LTIB			LANK			LHEE			LTOE			RTHI			RKNE			RTIB			RANK			RHEE			RTOE			*39			*40			*41			*42			*43			*44			*45			*46			*47			*48			*49		
		X1	Y1	Z1	X2	Y2	Z2	X3	Y3	Z3	X4	Y4	Z4	X5	Y5	Z5	X6	Y6	Z6	X7	Y7	Z7	X8	Y8	Z8	X9	Y9	Z9	X10	Y10	Z10	X11	Y11	Z11	X12	Y12	Z12	X13	Y13	Z13	X14	Y14	Z14	X15	Y15	Z15	X16	Y16	Z16	X17	Y17	Z17	X18	Y18	Z18	X19	Y19	Z19	X20	Y20	Z20	X21	Y21	Z21	X22	Y22	Z22	X23	Y23	Z23	X24	Y24	Z24	X25	Y25	Z25	X26	Y26	Z26	X27	Y27	Z27	X28	Y28	Z28	X29	Y29	Z29	X30	Y30	Z30	X31	Y31	Z31	X32	Y32	Z32	X33	Y33	Z33	X34	Y34	Z34	X35	Y35	Z35	X36	Y36	Z36	X37	Y37	Z37	X38	Y38	Z38	X39	Y39	Z39	X40	Y40	Z40	X41	Y41	Z41	X42	Y42	Z42	X43	Y43	Z43	X44	Y44	Z44	X45	Y45	Z45	X46	Y46	Z46	X47	Y47	Z47	X48	Y48	Z48	X49	Y49	Z49	X50	Y50	Z50
																																																																																																																																																							
106	1.05	218.57176	1746.60657	963.2229	208.89293	1726.255	1105.17151	87.95348	1673.8385	945.00629	66.04989	1652.15967	1086.29163	29.4162	1528.12415	1019.00928	-14.49736	1251.87317	1045.77917	171.18471	1463.57568	1007.70813	228.04553	1293.97095	1024.58667	-21.07297	1355.72852	1095.43762	98.70735	1494.9502	837.80115	77.4817	1290.90808	767.18433	64.70335	1150.78345	766.07135	58.67506	1020.41315	754.56323	91.94014	885.81274	791.98871	52.20674	897.25604	752.29083	55.95597	829.44446	754.17615	111.46841	1506.40894	1204.88477	99.05214	1318.51831	1300.57739	125.42686	1175.71912	1327.17688	169.65448	1065.58728	1353.39941	235.85777	946.80859	1344.11853	189.48029	938.60663	1375.20898	235.68817	882.73163	1382.83997	209.35733	991.0354	908.51379	226.26361	985.45276	1164.19482	5.78094	1033.97913	1004.94385	9.45572	1038.24377	1120.08472	186.88727	683.85071	842.96075	193.67383	496.43472	858.93488	61.21352	368.18198	881.6886	-42.41462	172.87892	917.80841	-70.15244	158.33354	979.32898	58.70224	67.13773	867.52759	163.26671	673.41803	1224.89026	167.73947	464.41238	1174.13818	122.82877	280.13629	1174.30115	96.67499	90.97878	1127.63843	59.93579	38.60478	1070.16443	247.73929	36.4931	1141.99756	111.93407	1812.04749	1047.00879	-2845.19824	1034.06104	3360.40332	NaN	NaN	NaN	NaN	NaN	NaN	NaN	NaN	NaN	NaN	NaN	NaN	NaN	NaN	NaN	NaN	NaN	NaN	NaN	NaN	NaN	NaN	NaN	NaN	NaN	NaN	NaN
107	1.06	227.89264	1746.99341	963.03271	218.75928	1726.84143	1105.03833	97.04451	1674.35474	945.16339	75.56268	1653.08484	1086.58203	38.15973	1529.06482	1019.9541	-5.75503	1252.86365	1047.20422	180.09978	1464.35437	1008.04871	236.6644	1294.7428	1025.42346	-12.14307	1357.13574	1097.73975	106.43027	1495.25549	838.67657	81.96078	1291.42017	768.06274	66.60224	1151.92029	767.38495	57.89359	1021.60535	755.9516	89.46646	886.69757	792.84113	49.32899	898.18811	753.54077	52.37418	830.505	755.57141	121.34616	1508.07361	1205.35254	111.23454	1320.67761	1302.33276	139.53691	1178.00806	1328.96082	185.49393	1068.61206	1355.09412	253.39355	950.76355	1345.00793	207.6402	941.85895	1376.59509	254.66324	886.86749	1383.97522	218.78131	993.07263	910.72943	233.54129	985.77814	1165.94348	14.5113	1035.21277	1004.75385	17.49555	1038.86755	1120.03394	199.58426	686.26245	843.15076	209.07895	497.91055	859.85638	81.4251	364.04227	881.81677	-14.09873	164.54744	918.51563	-41.42162	148.76019	980.3866	91.87665	64.00529	868.32898	167.52211	673.27136	1225.0957	169.60867	464.21201	1174.16199	123.90118	280.1554	1174.1626	96.7847	91.1278	1127.47021	60.0115	39.06922	1070.07605	247.71361	36.42987	1142.10327	121.55092	1813.01624	1046.78882	-2845.79224	1034.18542	3357.54346	NaN	NaN	NaN	NaN	NaN	NaN	NaN	NaN	NaN	NaN	NaN	NaN	NaN	NaN	NaN	NaN	NaN	NaN	NaN	NaN	NaN	NaN	NaN	NaN	NaN	NaN	NaN
108	1.07	237.38911	1747.4552	962.62994	228.3909	1727.51965	1104.58936	106.19793	1674.93188	945.2041	84.94058	1654.08276	1086.85205	47.18723	1529.89246	1020.90259	2.91251	1253.70081	1048.45447	189.01576	1464.98108	1008.30322	245.2438	1295.37463	1026.28137	-2.9336	1358.1676	1099.05493	114.04567	1495.44482	839.43677	85.77024	1292.40051	768.98785	68.79256	1152.99609	768.48657	57.65405	1022.9422	757.1756	87.26396	887.61053	793.39154	46.90528	899.60321	754.68884	49.01694	831.38477	756.86139	131.09442	1509.70007	1205.6908	123.35938	1322.42676	1303.42542	153.60477	1180.13074	1330.39648	201.4268	1071.53918	1356.25305	270.70587	954.83533	1345.91736	225.55646	945.15576	1378.0498	273.50372	890.92499	1384.98938	228.34526	994.85785	913.07294	240.48518	985.91095	1167.53711	23.26872	1036.42102	1004.33966	25.37619	1039.50598	1119.88745	211.6727	688.41803	843.22253	224.05379	499.19617	860.65521	101.58057	359.42148	882.03345	14.83573	155.84567	919.01831	-11.83914	138.6188	980.55609	125.73751	60.90395	868.81274	172.13268	672.9621	1225.38745	171.3246	463.92853	1174.13232	124.50407	280.28912	1174.05908	96.87012	91.25961	1127.27771	60.10309	39.20943	1069.84143	247.668	36.45357	1142.2489	131.37665	1813.86475	1046.72412	-2845.72388	1034.05444	3357.42505	NaN	NaN	NaN	NaN	NaN	NaN	NaN	NaN	NaN	NaN	NaN	NaN	NaN	NaN	NaN	NaN	NaN	NaN	NaN	NaN	NaN	NaN	NaN	NaN	NaN	NaN	NaN
109	1.08	247.26147	1747.39172	962.54156	238.06784	1727.94385	1104.17224	115.47324	1675.56128	945.67902	94.42245	1654.99133	1087.02075	56.3131	1530.57605	1021.94067	11.59797	1254.39294	1049.49927	197.88002	1465.53125	1008.47552	253.87158	1295.87732	1026.97192	6.03708	1359.16956	1100.74084	121.64887	1495.47791	840.1604	90.09538	1293.09338	769.88391	70.92286	1153.96155	769.66602	57.63068	1024.25562	758.05011	85.43878	888.32471	794.00366	44.69507	900.8891	755.89038	46.2474	832.88507	757.94263	140.85046	1511.05908	1206.0835	135.2363	1324.29834	1305.20752	167.43646	1182.20959	1332.0448	217.17175	1074.35608	1357.46423	288.12552	958.56689	1346.6051	243.42224	948.40424	1379.34509	292.24826	894.96155	1385.90527	237.95357	996.35028	915.33337	247.54521	985.60315	1169.50696	32.01406	1037.56226	1003.86108	33.23083	1040.0271	1119.5647	223.75809	690.42352	843.40082	238.40536	500.27713	861.56787	121.5929	354.29361	882.41486	44.54327	146.85941	919.23846	18.65467	128.17415	980.68866	160.11322	57.89577	868.9129	177.01791	672.50208	1225.70483	173.10776	463.75128	1174.27612	124.86323	280.49374	1173.93091	96.99646	91.19098	1127.05139	60.24276	39.22656	1069.55518	247.6096	36.41375	1142.40051	141.09924	1814.42627	1046.2417	-2846.69946	1034.24561	3355.54248	NaN	NaN	NaN	NaN	NaN	NaN	NaN	NaN	NaN	NaN	NaN	NaN	NaN	NaN	NaN	NaN	NaN	NaN	NaN	NaN	NaN	NaN	NaN	NaN	NaN	NaN	NaN
110	1.09	255.74051	1746.99268	961.43353	247.70184	1728.26355	1103.67725	124.56792	1675.43652	945.18848	103.66833	1655.45361	1087.11145	65.11211	1530.86963	1022.53345	20.2862	1254.78601	1050.28247	206.7589	1465.86218	1008.72113	262.5239	1296.30103	1027.74011	15.11621	1359.5979	1102.44019	129.44464	1495.2876	840.73358	94.53896	1293.84473	770.62299	73.2009	1154.78516	770.96936	57.70279	1025.13855	759.11023	84.10993	889.16284	794.39233	42.93044	902.03693	756.89905	44.10425	834.08392	758.74615	150.61896	1512.11682	1206.23364	147.08585	1325.62952	1305.77515	181.16548	1184.09229	1333.52307	232.70551	1077.021	1358.67126	305.28201	962.30426	1347.2373	261.10062	951.48425	1380.39771	310.98529	898.7962	1386.64331	247.67146	997.51794	917.51178	254.80373	985.42017	1171.09888	40.8744	1038.45496	1003.09656	41.15057	1040.36804	1118.93005	235.63419	692.27075	843.43817	252.25204	500.95892	862.64014	142.36214	348.82184	882.64032	75.08735	137.80798	918.94537	50.22816	117.44449	980.50085	195.14302	55.09175	868.53809	181.60378	672.16663	1225.6344	174.92319	463.51617	1174.24866	125.27174	280.70709	1173.82666	96.96822	91.08521	1126.41052	60.5281	39.39469	1068.9624	247.55453	36.39634	1142.5166	150.83398	1814.66638	1045.65979	NaN	NaN	NaN	NaN	NaN	NaN	NaN	NaN	NaN	NaN	NaN	NaN	NaN	NaN	NaN	NaN	NaN	NaN	NaN	NaN	NaN	NaN	NaN	NaN	NaN	NaN	NaN	NaN	NaN	NaN
111	1.1	264.79584	1747.11646	960.57294	257.32584	1728.41272	1103.125	133.34172	1675.79639	945.16071	113.07198	1656.15784	1087.07166	74.10159	1531.36487	1023.38635	28.89138	1255.23828	1051.02734	214.93259	1465.92505	1008.92102	271.68643	1296.62292	1028.47827	24.12928	1360.56897	1104.00061	136.96109	1495.06433	841.43048	98.58961	1294.21082	771.65997	75.41273	1155.64026	771.70435	57.6036	1026.2915	760.22754	83.10533	889.94446	794.54773	41.24016	903.31152	758.00061	41.80261	835.33337	759.78967	160.26053	1513.16248	1206.57202	158.73642	1326.98816	1307.07007	194.70612	1185.81628	1334.96802	248.02649	1079.43237	1359.79797	322.28976	966.00378	1347.77429	278.48373	954.61169	1381.53906	329.48886	902.69971	1387.24939	257.36264	998.3407	919.42773	262.07574	984.77643	1172.78369	49.53518	1039.42871	1002.51947	48.77446	1040.74011	1118.41577	246.55635	693.64459	843.61743	265.3605	501.3858	863.49414	162.37721	343.14078	883.10657	106.24651	128.74146	918.67828	81.91709	107.30331	980.14252	229.9534	52.32088	868.2002	185.84543	671.96155	1225.59277	177.01527	463.52316	1174.4718	125.95745	280.8634	1173.73291	97.13875	91.69324	1126.65894	60.39067	39.5469	1068.88867	247.60074	36.42419	1142.64551	160.58665	1815.22046	1045.31641	-2845.95703	1033.72839	3356.91211	NaN	NaN	NaN	NaN	NaN	NaN	NaN	NaN	NaN	NaN	NaN	NaN	NaN	NaN	NaN	NaN	NaN	NaN	NaN	NaN	NaN	NaN	NaN	NaN	NaN	NaN	NaN
112	1.11	274.84384	1746.74414	960.56006	266.95184	1728.31152	1102.60181	142.31276	1675.85583	945.05945	122.105	1656.40771	1087.07666	82.78056	1531.46875	1023.81622	37.5014	1255.4519	1051.58533	223.74046	1465.99963	1009.04797	279.83945	1296.50061	1029.2052	33.08333	1361.02026	1105.26868	144.71465	1494.53918	842.05072	103.23602	1294.71045	772.60681	78.08213	1156.39905	772.67859	58.0202	1027.35303	761.09955	82.03833	890.42285	794.6684	40.32827	904.56244	758.97229	40.03272	836.54858	760.45135	169.85825	1513.92603	1206.70435	170.30261	1328.03992	1307.75916	208.10146	1187.38647	1336.28064	263.11172	1081.77466	1360.60718	339.23227	969.64307	1348.17102	296.04831	957.47064	1382.21973	347.81964	906.56097	1387.63989	267.05789	998.79449	921.0896	269.29407	983.95239	1174.39722	58.26979	1040.06787	1001.77051	56.51514	1040.88989	1117.69507	257.62662	694.99072	843.78467	278.17514	501.47232	864.74042	182.38437	337.35422	883.32373	137.33496	120.06555	917.89581	114.36851	97.52629	979.78168	265.09412	50.05102	867.49225	189.80002	671.78094	1225.16931	179.11533	463.03922	1174.19214	126.97073	280.96588	1173.55359	97.24371	91.69924	1126.28357	60.66206	39.51432	1068.34021	247.36635	36.28286	1142.79016	170.41023	1815.18616	1044.67285	NaN	NaN	NaN	NaN	NaN	NaN	NaN	NaN	NaN	NaN	NaN	NaN	NaN	NaN	NaN	NaN	NaN	NaN	NaN	NaN	NaN	NaN	NaN	NaN	NaN	NaN	NaN	NaN	NaN	NaN
113	1.12	283.74466	1746.22229	959.39258	276.35175	1728.26599	1101.79224	151.58931	1676.06677	945.4895	131.5139	1656.78345	1086.83716	91.76266	1531.45801	1024.35522	46.07678	1255.48804	1051.91235	232.54558	1465.91187	1009.08661	288.61676	1296.4801	1029.92224	42.34307	1361.09998	1105.72742	152.24846	1494.10303	842.52094	107.86534	1294.78369	773.75378	80.82648	1157.06763	773.63092	59.05312	1028.24304	762.02985	82.03226	891.12305	794.23108	39.27149	905.72961	759.83459	38.64333	837.72473	760.90948	179.45915	1514.47253	1206.75854	181.70943	1329.0094	1308.85242	221.42978	1188.77441	1337.40662	278.43613	1084.21838	1361.63696	355.93771	973.18207	1348.40247	313.28955	960.30463	1382.8717	366.01495	910.32843	1387.92725	276.42856	998.83032	922.67322	276.56494	982.88611	1175.89392	66.91477	1040.4082	1000.99023	64.25562	1040.87573	1116.86865	268.34814	695.81964	844.06561	289.92169	501.14072	865.98547	202.36612	331.61063	883.3584	169.03008	111.95568	916.84637	146.91786	88.01414	978.37952	300.09949	48.33111	866.43164	193.93649	671.48694	1224.95874	181.60043	462.99036	1174.32312	128.25809	281.05002	1173.40881	97.43412	91.87678	1126.07581	60.50171	39.90399	1068.30945	247.3076	36.23755	1142.92981	180.13077	1815.3197	1044.1709	NaN	NaN	NaN	NaN	NaN	NaN	NaN	NaN	NaN	NaN	NaN	NaN	NaN	NaN	NaN	NaN	NaN	NaN	NaN	NaN	NaN	NaN	NaN	NaN	NaN	NaN	NaN	NaN	NaN	NaN
